<mxfile host="app.diagrams.net" modified="2022-04-07T10:09:17.198Z" agent="5.0 (Macintosh; Intel Mac OS X 10_15_7) AppleWebKit/537.36 (KHTML, like Gecko) Chrome/99.0.4844.84 Safari/537.36" etag="xP5LPTdqZxFnpD3gvvMf" version="17.4.0" type="github">
  <diagram id="sl638k_Jq_DELR7Gytbi" name="Page-1">
    <mxGraphModel dx="946" dy="529" grid="1" gridSize="10" guides="1" tooltips="1" connect="1" arrows="1" fold="1" page="1" pageScale="1" pageWidth="850" pageHeight="1100" math="0" shadow="0">
      <root>
        <mxCell id="0" />
        <mxCell id="1" parent="0" />
        <mxCell id="r3z55FjVypWgNgjJTafg-1" value="EKS&lt;br&gt;" style="sketch=0;aspect=fixed;html=1;points=[];align=center;image;fontSize=12;image=img/lib/mscae/Kubernetes.svg;" vertex="1" parent="1">
          <mxGeometry x="410" y="41.19999999999998" width="92.5" height="88.8" as="geometry" />
        </mxCell>
        <mxCell id="r3z55FjVypWgNgjJTafg-24" value="HELM&lt;br&gt;" style="shape=image;html=1;verticalAlign=top;verticalLabelPosition=bottom;labelBackgroundColor=#ffffff;imageAspect=0;aspect=fixed;image=https://cdn3.iconfinder.com/data/icons/travelling-icon-set/800/helm-128.png" vertex="1" parent="1">
          <mxGeometry x="275.26" y="36.6" width="98" height="98" as="geometry" />
        </mxCell>
        <mxCell id="r3z55FjVypWgNgjJTafg-61" style="edgeStyle=orthogonalEdgeStyle;rounded=0;orthogonalLoop=1;jettySize=auto;html=1;entryX=0;entryY=0.5;entryDx=0;entryDy=0;" edge="1" parent="1" source="r3z55FjVypWgNgjJTafg-12" target="r3z55FjVypWgNgjJTafg-14">
          <mxGeometry relative="1" as="geometry" />
        </mxCell>
        <mxCell id="r3z55FjVypWgNgjJTafg-12" value="MongoDB&lt;br&gt;" style="dashed=0;outlineConnect=0;html=1;align=center;labelPosition=center;verticalLabelPosition=bottom;verticalAlign=top;shape=mxgraph.weblogos.mongodb" vertex="1" parent="1">
          <mxGeometry x="190.00461538461536" y="244.06999999999996" width="51.229615384615386" height="31.86" as="geometry" />
        </mxCell>
        <mxCell id="r3z55FjVypWgNgjJTafg-13" value="" style="group" vertex="1" connectable="0" parent="1">
          <mxGeometry x="502.5017582417581" y="230" width="93.25346153846158" height="123.89999999999998" as="geometry" />
        </mxCell>
        <mxCell id="r3z55FjVypWgNgjJTafg-55" value="" style="group" vertex="1" connectable="0" parent="r3z55FjVypWgNgjJTafg-13">
          <mxGeometry y="46.94999999999999" width="93.25346153846158" height="76.94999999999999" as="geometry" />
        </mxCell>
        <mxCell id="r3z55FjVypWgNgjJTafg-15" value="" style="shape=image;verticalLabelPosition=bottom;labelBackgroundColor=default;verticalAlign=top;aspect=fixed;imageAspect=0;image=data:image/jpeg,/9j/4AAQSkZJRgABAQAASABIAAD/4QBMRXhpZgAATU0AKgAAAAgAAYdpAAQAAAABAAAAGgAAAAAAA6ABAAMAAAABAAEAAKACAAQAAAABAAAAWKADAAQAAAABAAAAWAAAAAD/wAARCABYAFgDAREAAhEBAxEB/8QAHwAAAQUBAQEBAQEAAAAAAAAAAAECAwQFBgcICQoL/8QAtRAAAgEDAwIEAwUFBAQAAAF9AQIDAAQRBRIhMUEGE1FhByJxFDKBkaEII0KxwRVS0fAkM2JyggkKFhcYGRolJicoKSo0NTY3ODk6Q0RFRkdISUpTVFVWV1hZWmNkZWZnaGlqc3R1dnd4eXqDhIWGh4iJipKTlJWWl5iZmqKjpKWmp6ipqrKztLW2t7i5usLDxMXGx8jJytLT1NXW19jZ2uHi4+Tl5ufo6erx8vP09fb3+Pn6/8QAHwEAAwEBAQEBAQEBAQAAAAAAAAECAwQFBgcICQoL/8QAtREAAgECBAQDBAcFBAQAAQJ3AAECAxEEBSExBhJBUQdhcRMiMoEIFEKRobHBCSMzUvAVYnLRChYkNOEl8RcYGRomJygpKjU2Nzg5OkNERUZHSElKU1RVVldYWVpjZGVmZ2hpanN0dXZ3eHl6goOEhYaHiImKkpOUlZaXmJmaoqOkpaanqKmqsrO0tba3uLm6wsPExcbHyMnK0tPU1dbX2Nna4uPk5ebn6Onq8vP09fb3+Pn6/9sAQwABAQEBAQECAQECAwICAgMFAwMDAwUGBQUFBQUGBwYGBgYGBgcHBwcHBwcHCAgICAgICgoKCgoLCwsLCwsLCwsL/9sAQwECAgIDAwMFAwMFDAgGCAwMDAwMDAwMDAwMDAwMDAwMDAwMDAwMDAwMDAwMDAwMDAwMDAwMDAwMDAwMDAwMDAwM/90ABAAL/9oADAMBAAIRAxEAPwD/AD/6ACgAoAKACgAoAKACgAoAKACgD//Q/wA/+gAoAKACgAoAKACgAoAKACgAoA//0f8AP/oAKACgAoA/oPP/AARn8EW/7EMvx+1HxjdR+Mk8OHxL5X7j+zggt/tX2cn75Oz5PPE2zPz7CnX9a/4hvT/sP+0XW/ecntLacm17fd1vv0P5o/4j1iHxb/YdPBL2HtfZX9/2l+fk57bb68lr20vc/En4XfC3xt8YPFUXg/wPbeZcScvI+RHEnd5HwcKP59BmvzHA4Gri6vsKC1/rU/sHg3gvNuKMzWV5RTvN7t/BBfzzfRf8Mk3oegfHz9nDxl+z7fWCeIp7e/sdS3/Z7i33YzHs3owcLtYZH1HfrjrzbJ6+AmvaaxfU+o8TvCbNeCq9FY+pCcKl+ScL20tdNNaPXzute6XtX7D3/BOH9pf/AIKBa9qem/AextbfT9GQfbtX1aR4bKJz9yLzI45XeRhzsRG45OBivzfjDjvKuGqSqZg3zPaC1m/O11p5ux+XxieIftRfsv8Axb/Y9+NOrfAT43WSWetaVsfzICXgmilVXjngkwN8bg9ccHKkB1YD1uHeIcHneAp5nl7vCf3p9U10a/4K0syT5rr2wCgD/9L/AD/6ACgD0n4afDTx58X/AB3pXwv+GGkXOt6/rdwLWxsrUZeVz2HYADJdiQqrkkgA0Af1LeLv+DbfwX8O/wBinXfiR46+IdxafE7QdEuNaueYP7FiNrG88lu++MT7AiMn2nzQAf3nl7ODfKieY/n58A/tB/tXfFrwhpX7Hmj+Mb0+GL1hbR6dK6rGIVy5RpMeaYUQZ8vftwMBele/hc3zTE0aeVLEP2T0t0t+dvIw4T8JcuzzinDvL8HT+v13ZTfTTWb6XSTbaV/Vn6s+AfAPwv8A2UfhfPdXFytvbWyCXUdRlH7yaToOBk9WxDGPX1Jz99hMLhsqw3vz9X3/AK6I/wBXOGeFuG/DTh6pUqVEoJXq1X8dSf576U6avvpdtt+Mfsz/ALLfxy/4LJftCR2ukQS+G/hh4Xl23uqOm7yUfBKIfuyXs4RfkB2Rj534DF/578VfFXDZPh/a19ajv7On1fm+y7v5I/gTxa8UsZxvmirtcmEpXVKHVJ2vOf8AfnZX6KySvq3/AGF/Eb4jfsh/8Ef/ANkC3/0aLQPC3h9Ps+m6Xb4N3qV2RnYmcGa5mYb5pT9wcuQgFfxFl2XZ5xznj156s9XP7EIfol0R+W7H+fJ+2r+198SP24/2hNZ/aF+JMUVpc6nsgtbK3yYrW2hG2KBC3L7R8zsfvuWbAzgf2/wrwzhOH8up5dg9lu3u293/AF00MT5Er6IAoA//0/8AP/oAKAP7rP8Ag3b/AGZv2d/AX7ISftfWv2W98aeIJb211fUblkP9mW9rO6C2QniBHjRLiZm+Zg6ZOwJW1ImR8S/8FDv+ChHxi/4Ki/GX/h3r/wAE890ng2SQjWtbUmKO+SMgSyyyKCYdNhJHbdOxCqrl4438PiHiPBZNgqmYZg7QX3t9El1b6fe7JNnrZNkuLzTFrB4NXm/uS7t9Ev8AgLWx8+/tp/8ABInwR+wp+zD/AMNP/Cjx1q9x4t8Hy2T3f2tYRb3BmmS2f7PEiB4/nkD7JJJf3YKPnOa/HvD3xmx+ccQLAPDqEHdwavdWTet9HoraJav5H69m/BT4Uw1PPsrxc1i6Dg76WvdLRfPVO6aunc+YP2NP2YP2pv8AgsH8V7Tw7rlz/Y/gLw3Kr61qcEW23gz/AAxKSRNdyDIRSf3YO/5Uzn9N8TvFSnk2DjUxj56r/h011fd9kur+SPlOOvFPiDi90YZxWXJDaEFaF/52us7aXey0Vru/9k/xI+I/7Hv/AASD/ZBgxbRaB4W8Pw/Z9K0u3wbvUrojOxc4M1xMw3zSt9wZdyEAr+KsDl+eccZ4/f56s9ZzfwQh+iWyR+fbH8ynwR/Zp/ax/wCDgH9oW/8A2j/2iNRn8I/CzRHktbL7Ku6OKPOfsenJJ8jv0a4uWHXsTsjH9scH8H4Lh7ALAYBf459Zvu/0XQxlI/O3/grN/wAE8dE/4J0/tBaZ8OvCOvy+INA8QaSNVsHvAi3cQ8x4mjnEYCv86EpIAoIOMZQ5+plGwH5SVIBQB//U/wA/+gAoA+pv2X/gv8ff2lviF/wzz8A/tUsniPY2oxLK8VotvC+ftF6VyPIgLZyVb5yFjVpHQHxuIOIMBkmCqZhmFS0F97fRJdW+n3uyuz08nyfE5pi1g8HG839yXd9kv+AtbI/ts/Zv/Zv/AGaP+CV37NWqalq+o21nbWVuL3xR4ovRslu5RwnyDe4QO/lwWseTl9ieZNI7P/FfEfEWccb5xToUKbd9KdNbQXd9L21nN226JJL+psmyXLOFsudSo1prOo92/wDL+SC/F3v/ADweLv2hPHv/AAW9/b08EfsvjUp/Bvw4ub+b+zbLhpRFbW808t3cANse9khjdI1yY4d+xM5kkk/obLeHsJ4fcN4rNOX22LSXO/NtJQXVU03r1drvol/PnGXGWIz3EdqK+CH6v+/+Wy6t/wBcfxI+I/7In/BIb9j6Ai2i8P8Ahbw9F9n0rS7fBu9SuiM7EzgzXMzDfNI33Bl3IQCv5ly/AZ5xxnju+epPWc38EIfol0XU+P2P4LP24P2rf2lv2/fHt5+0t8VrK9i8O2spstMht4pTpunRMRtgjk27PMbgyOfnkbsAEA/uDhHgjD8PZWqWCpvl+3Ut8c+7f5LoedLMcL9Y+rOsva78l1z2723sf1zT/wDBbj/gnF+zr+xFoHiD9n65ivNSstIitdI8EW8Tw3ENwEAMV38hSFI3yZptx8zBeMyEjP0vNA6eU/ig/aX/AGl/jD+138YdW+OXxx1Q6nrmqv8A7sMEIz5dvbx8iOGMHCKPqSXJY5lHzrQAUAf/1f8AP/oAKAP7SP8AglL8Rv2Dv2bf2Ao/ivYeJNK0fUpLc3XjK7u5U+3fa4i4ERiBMxRQdtrDGvz53oDJI+f5D8U8t4lzjif6l7Gc4bUkl7lnbW+1/wCdt6Ws9Ej+k/D7G5FluRfXPbJT3qX+O/a29v5Et797n5D/ALR37Qfx2/4LA/Gf+wfD3m+E/hV4clL2VvKNwQ4IFzcqrKk17IhOyMPshjJVDzJJL/Ufgr4JfVqbp0rOq1+9q20X9yHl5aN/HO2iX83eM3jVTpL2tX4P+XdJPV/357/frbZX1b+E/wBov9n7xl+xV8RvD/iLwV4nuDLPm90zVLLfZ3VvLCwzgxuWR0ypR1f8q/ReOOCYZPUjhsQ1Wp1k91v3TTuv8z8+4A48p8T4StUhR9jOi0mr3WuzTsvPQ+rvg14H/ao/4KnfEWz+KH7VvizVtb8M6B/o7Xd4+N4ype2tEACIXwDNIq+mcviufwv8KsHNuGBw6oYS95tL432T6/oeL4peJ2H4Yw3ssPaeMmvcXb+/Py7Lr6H7F/ta/Hn4F/so/slan8L76ytfs2q6RcaJomgRD/W+ZGY8lM5EcZKvLKT17mQjP9A8ZZlleTZM8HyrVOEIfLf0XV9/M/lDw14ez3ifimnmiqP3JqpUqvpre3q9lDtvofjF/wAE0P8AgmlrX7WevRfFL4qRS2Hw406X5tuUl1GRDzFCeoiVhiaZfeOM78tH+OcE8D1M1qfWcTphl/5O+y8u7+S12/pnxc8XKXDFJ5fl7U8fNeqpp/bn5/yQ+b0sn61/wWR/ZY/ZT/Z1k8HXPwTtotA8Qat5323SLeWSVXtowipckSO/k/OCnH+sO89UevR8SMhyvLJ0fqEOSbveF29NLPXb9d+543gLxjxDntPF/wBqv2tGFuSo0l77bvDRK+mvlouqPwlr8sP6ICgD/9b/AD/6ACgDf0WCwvtas7TVZ/s1tJKiSz4z5aEgF8d8DmtsOqbqpVHaN9X2XcxryqU6TdNXkk7Lu+x/RhdfED4O/so/B+3utP8AKg0m2T/Qre3IMt1IRkbD/G79Xdu3oK/quvmGUcN5WnTt7JbJbzf6t9WfxzDJ844pziUal/aP429oL9EuiPz++G/w8+J//BQf4rv8UfitI+n+EtNfylii4AjBz9nt89T/AM9JD/PAH5RlOVZhxjmbzDH6YZafL+SH6v8A4CP1/PM6yzgHKv7Oytc+Lnrr3/5+T8uy/wCCz9dfi7+0b8J/2MPg/Z2tpZRRyxRfZ9E0SH92ZSP++ikYJzM59e7kZ/V+IM+y/hvL0qaXNtCC/rbu/wBT+f8Ahvg/NONM0qOq3y3vUqPp5ebfRfofmZ+zV+zh8Tv+ChPxXn/aN/aTupf+EUEuMDMX2nyicWloM5jto+Vd175RSZC8ifk/DfDeN4pxss3zVv2N/S/9yHaC6v5LW7X7XxvxjlnAWVLIOHqa+t29eS//AC8qd6j6J+Ta5LKX7Q/tP/tx/Dr9hP4UWeieHrG1k8QSWot9D0OL93FHHGNiSSImNkEeMYH3yNidyn6jxXxTg+HsGqFBL2lvch0S7vsl079OrP5z8PfDjNONM0qYvE1H7G96tV6tveyvvN/ct30Uv5Ivil8VfHnxr+IOp/FP4oajLqut6tL5txcSn8AigcIiDARFGFAAAxX8wY3HVcZiHicQ7ze7P77yfJ8HlWDp5fl9NQpQVkl/WrfV9XqzyuuQ9MKAP//X/wA/+gAoAKACgD9xvCn7dHwF+HHwP0uDwzvfUrLT47aLRAkgxKEAKtKU2bMkl5M5fngnNf0NhfEfJsBk9OGE+NQSVOz3t1drWvu+vqfzLmPhXnmZ55WeJf7uc23Uutr9Fe97bLZeh+THj34peIviv8RP+E/+KMzahJNKnmoh2qsIP+piH8CAZC/nyck/h2YZxiMwxn1zHPnk3r6dl2XY/oHLMiw+V5f/AGfly5Elp6/zvu77/cfv18Qf+CjP7Pnwj+D9pc/Bm5tdWvZbcRaTpFvGYo7cAYHnqAPJSMY/d9X6JgZI/fs08RMnwGXr+y2pztaEErJevZLt1+9n8o5R4O57m2b1IZynCF71Kjabnr9ju332XXon/Pb8Q/iH40+K/jK/8ffEK9fUNW1F/MnnlPX+6oHRVUYCKBgDHav54x2OxGNxDxOJd5vd/wBdOyP61yjKMHleDp4DA01CnDRJf1q31Z5xXGekFABQB//Q/wA/+gAoAKACgAoAKACgAoAKACgAoA//0f8AP/oAKACgAoAKACgAoAKACgAoAKAP/9k=;" vertex="1" parent="r3z55FjVypWgNgjJTafg-55">
          <mxGeometry x="63.25346153846158" y="46.94999999999999" width="30" height="30" as="geometry" />
        </mxCell>
        <mxCell id="r3z55FjVypWgNgjJTafg-16" value="Newman-agent group" style="shape=image;verticalLabelPosition=bottom;labelBackgroundColor=default;verticalAlign=top;aspect=fixed;imageAspect=0;image=data:image/jpeg,/9j/4AAQSkZJRgABAQAASABIAAD/4QBMRXhpZgAATU0AKgAAAAgAAYdpAAQAAAABAAAAGgAAAAAAA6ABAAMAAAABAAEAAKACAAQAAAABAAAAWKADAAQAAAABAAAAWAAAAAD/wAARCABYAFgDAREAAhEBAxEB/8QAHwAAAQUBAQEBAQEAAAAAAAAAAAECAwQFBgcICQoL/8QAtRAAAgEDAwIEAwUFBAQAAAF9AQIDAAQRBRIhMUEGE1FhByJxFDKBkaEII0KxwRVS0fAkM2JyggkKFhcYGRolJicoKSo0NTY3ODk6Q0RFRkdISUpTVFVWV1hZWmNkZWZnaGlqc3R1dnd4eXqDhIWGh4iJipKTlJWWl5iZmqKjpKWmp6ipqrKztLW2t7i5usLDxMXGx8jJytLT1NXW19jZ2uHi4+Tl5ufo6erx8vP09fb3+Pn6/8QAHwEAAwEBAQEBAQEBAQAAAAAAAAECAwQFBgcICQoL/8QAtREAAgECBAQDBAcFBAQAAQJ3AAECAxEEBSExBhJBUQdhcRMiMoEIFEKRobHBCSMzUvAVYnLRChYkNOEl8RcYGRomJygpKjU2Nzg5OkNERUZHSElKU1RVVldYWVpjZGVmZ2hpanN0dXZ3eHl6goOEhYaHiImKkpOUlZaXmJmaoqOkpaanqKmqsrO0tba3uLm6wsPExcbHyMnK0tPU1dbX2Nna4uPk5ebn6Onq8vP09fb3+Pn6/9sAQwABAQEBAQECAQECAwICAgMFAwMDAwUGBQUFBQUGBwYGBgYGBgcHBwcHBwcHCAgICAgICgoKCgoLCwsLCwsLCwsL/9sAQwECAgIDAwMFAwMFDAgGCAwMDAwMDAwMDAwMDAwMDAwMDAwMDAwMDAwMDAwMDAwMDAwMDAwMDAwMDAwMDAwMDAwM/90ABAAL/9oADAMBAAIRAxEAPwD/AD/6ACgAoAKACgAoAKACgAoAKACgD//Q/wA/+gAoAKACgAoAKACgAoAKACgAoA//0f8AP/oAKACgAoA/oPP/AARn8EW/7EMvx+1HxjdR+Mk8OHxL5X7j+zggt/tX2cn75Oz5PPE2zPz7CnX9a/4hvT/sP+0XW/ecntLacm17fd1vv0P5o/4j1iHxb/YdPBL2HtfZX9/2l+fk57bb68lr20vc/En4XfC3xt8YPFUXg/wPbeZcScvI+RHEnd5HwcKP59BmvzHA4Gri6vsKC1/rU/sHg3gvNuKMzWV5RTvN7t/BBfzzfRf8Mk3oegfHz9nDxl+z7fWCeIp7e/sdS3/Z7i33YzHs3owcLtYZH1HfrjrzbJ6+AmvaaxfU+o8TvCbNeCq9FY+pCcKl+ScL20tdNNaPXzute6XtX7D3/BOH9pf/AIKBa9qem/AextbfT9GQfbtX1aR4bKJz9yLzI45XeRhzsRG45OBivzfjDjvKuGqSqZg3zPaC1m/O11p5ux+XxieIftRfsv8Axb/Y9+NOrfAT43WSWetaVsfzICXgmilVXjngkwN8bg9ccHKkB1YD1uHeIcHneAp5nl7vCf3p9U10a/4K0syT5rr2wCgD/9L/AD/6ACgD0n4afDTx58X/AB3pXwv+GGkXOt6/rdwLWxsrUZeVz2HYADJdiQqrkkgA0Af1LeLv+DbfwX8O/wBinXfiR46+IdxafE7QdEuNaueYP7FiNrG88lu++MT7AiMn2nzQAf3nl7ODfKieY/n58A/tB/tXfFrwhpX7Hmj+Mb0+GL1hbR6dK6rGIVy5RpMeaYUQZ8vftwMBele/hc3zTE0aeVLEP2T0t0t+dvIw4T8JcuzzinDvL8HT+v13ZTfTTWb6XSTbaV/Vn6s+AfAPwv8A2UfhfPdXFytvbWyCXUdRlH7yaToOBk9WxDGPX1Jz99hMLhsqw3vz9X3/AK6I/wBXOGeFuG/DTh6pUqVEoJXq1X8dSf576U6avvpdtt+Mfsz/ALLfxy/4LJftCR2ukQS+G/hh4Xl23uqOm7yUfBKIfuyXs4RfkB2Rj534DF/578VfFXDZPh/a19ajv7On1fm+y7v5I/gTxa8UsZxvmirtcmEpXVKHVJ2vOf8AfnZX6KySvq3/AGF/Eb4jfsh/8Ef/ANkC3/0aLQPC3h9Ps+m6Xb4N3qV2RnYmcGa5mYb5pT9wcuQgFfxFl2XZ5xznj156s9XP7EIfol0R+W7H+fJ+2r+198SP24/2hNZ/aF+JMUVpc6nsgtbK3yYrW2hG2KBC3L7R8zsfvuWbAzgf2/wrwzhOH8up5dg9lu3u293/AF00MT5Er6IAoA//0/8AP/oAKAP7rP8Ag3b/AGZv2d/AX7ISftfWv2W98aeIJb211fUblkP9mW9rO6C2QniBHjRLiZm+Zg6ZOwJW1ImR8S/8FDv+ChHxi/4Ki/GX/h3r/wAE890ng2SQjWtbUmKO+SMgSyyyKCYdNhJHbdOxCqrl4438PiHiPBZNgqmYZg7QX3t9El1b6fe7JNnrZNkuLzTFrB4NXm/uS7t9Ev8AgLWx8+/tp/8ABInwR+wp+zD/AMNP/Cjx1q9x4t8Hy2T3f2tYRb3BmmS2f7PEiB4/nkD7JJJf3YKPnOa/HvD3xmx+ccQLAPDqEHdwavdWTet9HoraJav5H69m/BT4Uw1PPsrxc1i6Dg76WvdLRfPVO6aunc+YP2NP2YP2pv8AgsH8V7Tw7rlz/Y/gLw3Kr61qcEW23gz/AAxKSRNdyDIRSf3YO/5Uzn9N8TvFSnk2DjUxj56r/h011fd9kur+SPlOOvFPiDi90YZxWXJDaEFaF/52us7aXey0Vru/9k/xI+I/7Hv/AASD/ZBgxbRaB4W8Pw/Z9K0u3wbvUrojOxc4M1xMw3zSt9wZdyEAr+KsDl+eccZ4/f56s9ZzfwQh+iWyR+fbH8ynwR/Zp/ax/wCDgH9oW/8A2j/2iNRn8I/CzRHktbL7Ku6OKPOfsenJJ8jv0a4uWHXsTsjH9scH8H4Lh7ALAYBf459Zvu/0XQxlI/O3/grN/wAE8dE/4J0/tBaZ8OvCOvy+INA8QaSNVsHvAi3cQ8x4mjnEYCv86EpIAoIOMZQ5+plGwH5SVIBQB//U/wA/+gAoA+pv2X/gv8ff2lviF/wzz8A/tUsniPY2oxLK8VotvC+ftF6VyPIgLZyVb5yFjVpHQHxuIOIMBkmCqZhmFS0F97fRJdW+n3uyuz08nyfE5pi1g8HG839yXd9kv+AtbI/ts/Zv/Zv/AGaP+CV37NWqalq+o21nbWVuL3xR4ovRslu5RwnyDe4QO/lwWseTl9ieZNI7P/FfEfEWccb5xToUKbd9KdNbQXd9L21nN226JJL+psmyXLOFsudSo1prOo92/wDL+SC/F3v/ADweLv2hPHv/AAW9/b08EfsvjUp/Bvw4ub+b+zbLhpRFbW808t3cANse9khjdI1yY4d+xM5kkk/obLeHsJ4fcN4rNOX22LSXO/NtJQXVU03r1drvol/PnGXGWIz3EdqK+CH6v+/+Wy6t/wBcfxI+I/7In/BIb9j6Ai2i8P8Ahbw9F9n0rS7fBu9SuiM7EzgzXMzDfNI33Bl3IQCv5ly/AZ5xxnju+epPWc38EIfol0XU+P2P4LP24P2rf2lv2/fHt5+0t8VrK9i8O2spstMht4pTpunRMRtgjk27PMbgyOfnkbsAEA/uDhHgjD8PZWqWCpvl+3Ut8c+7f5LoedLMcL9Y+rOsva78l1z2723sf1zT/wDBbj/gnF+zr+xFoHiD9n65ivNSstIitdI8EW8Tw3ENwEAMV38hSFI3yZptx8zBeMyEjP0vNA6eU/ig/aX/AGl/jD+138YdW+OXxx1Q6nrmqv8A7sMEIz5dvbx8iOGMHCKPqSXJY5lHzrQAUAf/1f8AP/oAKAP7SP8AglL8Rv2Dv2bf2Ao/ivYeJNK0fUpLc3XjK7u5U+3fa4i4ERiBMxRQdtrDGvz53oDJI+f5D8U8t4lzjif6l7Gc4bUkl7lnbW+1/wCdt6Ws9Ej+k/D7G5FluRfXPbJT3qX+O/a29v5Et797n5D/ALR37Qfx2/4LA/Gf+wfD3m+E/hV4clL2VvKNwQ4IFzcqrKk17IhOyMPshjJVDzJJL/Ufgr4JfVqbp0rOq1+9q20X9yHl5aN/HO2iX83eM3jVTpL2tX4P+XdJPV/357/frbZX1b+E/wBov9n7xl+xV8RvD/iLwV4nuDLPm90zVLLfZ3VvLCwzgxuWR0ypR1f8q/ReOOCYZPUjhsQ1Wp1k91v3TTuv8z8+4A48p8T4StUhR9jOi0mr3WuzTsvPQ+rvg14H/ao/4KnfEWz+KH7VvizVtb8M6B/o7Xd4+N4ype2tEACIXwDNIq+mcviufwv8KsHNuGBw6oYS95tL432T6/oeL4peJ2H4Yw3ssPaeMmvcXb+/Py7Lr6H7F/ta/Hn4F/so/slan8L76ytfs2q6RcaJomgRD/W+ZGY8lM5EcZKvLKT17mQjP9A8ZZlleTZM8HyrVOEIfLf0XV9/M/lDw14ez3ifimnmiqP3JqpUqvpre3q9lDtvofjF/wAE0P8AgmlrX7WevRfFL4qRS2Hw406X5tuUl1GRDzFCeoiVhiaZfeOM78tH+OcE8D1M1qfWcTphl/5O+y8u7+S12/pnxc8XKXDFJ5fl7U8fNeqpp/bn5/yQ+b0sn61/wWR/ZY/ZT/Z1k8HXPwTtotA8Qat5323SLeWSVXtowipckSO/k/OCnH+sO89UevR8SMhyvLJ0fqEOSbveF29NLPXb9d+543gLxjxDntPF/wBqv2tGFuSo0l77bvDRK+mvlouqPwlr8sP6ICgD/9b/AD/6ACgDf0WCwvtas7TVZ/s1tJKiSz4z5aEgF8d8DmtsOqbqpVHaN9X2XcxryqU6TdNXkk7Lu+x/RhdfED4O/so/B+3utP8AKg0m2T/Qre3IMt1IRkbD/G79Xdu3oK/quvmGUcN5WnTt7JbJbzf6t9WfxzDJ844pziUal/aP429oL9EuiPz++G/w8+J//BQf4rv8UfitI+n+EtNfylii4AjBz9nt89T/AM9JD/PAH5RlOVZhxjmbzDH6YZafL+SH6v8A4CP1/PM6yzgHKv7Oytc+Lnrr3/5+T8uy/wCCz9dfi7+0b8J/2MPg/Z2tpZRRyxRfZ9E0SH92ZSP++ikYJzM59e7kZ/V+IM+y/hvL0qaXNtCC/rbu/wBT+f8Ahvg/NONM0qOq3y3vUqPp5ebfRfofmZ+zV+zh8Tv+ChPxXn/aN/aTupf+EUEuMDMX2nyicWloM5jto+Vd175RSZC8ifk/DfDeN4pxss3zVv2N/S/9yHaC6v5LW7X7XxvxjlnAWVLIOHqa+t29eS//AC8qd6j6J+Ta5LKX7Q/tP/tx/Dr9hP4UWeieHrG1k8QSWot9D0OL93FHHGNiSSImNkEeMYH3yNidyn6jxXxTg+HsGqFBL2lvch0S7vsl079OrP5z8PfDjNONM0qYvE1H7G96tV6tveyvvN/ct30Uv5Ivil8VfHnxr+IOp/FP4oajLqut6tL5txcSn8AigcIiDARFGFAAAxX8wY3HVcZiHicQ7ze7P77yfJ8HlWDp5fl9NQpQVkl/WrfV9XqzyuuQ9MKAP//X/wA/+gAoAKACgD9xvCn7dHwF+HHwP0uDwzvfUrLT47aLRAkgxKEAKtKU2bMkl5M5fngnNf0NhfEfJsBk9OGE+NQSVOz3t1drWvu+vqfzLmPhXnmZ55WeJf7uc23Uutr9Fe97bLZeh+THj34peIviv8RP+E/+KMzahJNKnmoh2qsIP+piH8CAZC/nyck/h2YZxiMwxn1zHPnk3r6dl2XY/oHLMiw+V5f/AGfly5Elp6/zvu77/cfv18Qf+CjP7Pnwj+D9pc/Bm5tdWvZbcRaTpFvGYo7cAYHnqAPJSMY/d9X6JgZI/fs08RMnwGXr+y2pztaEErJevZLt1+9n8o5R4O57m2b1IZynCF71Kjabnr9ju332XXon/Pb8Q/iH40+K/jK/8ffEK9fUNW1F/MnnlPX+6oHRVUYCKBgDHav54x2OxGNxDxOJd5vd/wBdOyP61yjKMHleDp4DA01CnDRJf1q31Z5xXGekFABQB//Q/wA/+gAoAKACgAoAKACgAoAKACgAoA//0f8AP/oAKACgAoAKACgAoAKACgAoAKAP/9k=;" vertex="1" parent="r3z55FjVypWgNgjJTafg-55">
          <mxGeometry y="46.94999999999999" width="30" height="30" as="geometry" />
        </mxCell>
        <mxCell id="r3z55FjVypWgNgjJTafg-54" value="" style="shape=image;verticalLabelPosition=bottom;labelBackgroundColor=default;verticalAlign=top;aspect=fixed;imageAspect=0;image=data:image/jpeg,/9j/4AAQSkZJRgABAQAASABIAAD/4QBMRXhpZgAATU0AKgAAAAgAAYdpAAQAAAABAAAAGgAAAAAAA6ABAAMAAAABAAEAAKACAAQAAAABAAAAWKADAAQAAAABAAAAWAAAAAD/wAARCABYAFgDAREAAhEBAxEB/8QAHwAAAQUBAQEBAQEAAAAAAAAAAAECAwQFBgcICQoL/8QAtRAAAgEDAwIEAwUFBAQAAAF9AQIDAAQRBRIhMUEGE1FhByJxFDKBkaEII0KxwRVS0fAkM2JyggkKFhcYGRolJicoKSo0NTY3ODk6Q0RFRkdISUpTVFVWV1hZWmNkZWZnaGlqc3R1dnd4eXqDhIWGh4iJipKTlJWWl5iZmqKjpKWmp6ipqrKztLW2t7i5usLDxMXGx8jJytLT1NXW19jZ2uHi4+Tl5ufo6erx8vP09fb3+Pn6/8QAHwEAAwEBAQEBAQEBAQAAAAAAAAECAwQFBgcICQoL/8QAtREAAgECBAQDBAcFBAQAAQJ3AAECAxEEBSExBhJBUQdhcRMiMoEIFEKRobHBCSMzUvAVYnLRChYkNOEl8RcYGRomJygpKjU2Nzg5OkNERUZHSElKU1RVVldYWVpjZGVmZ2hpanN0dXZ3eHl6goOEhYaHiImKkpOUlZaXmJmaoqOkpaanqKmqsrO0tba3uLm6wsPExcbHyMnK0tPU1dbX2Nna4uPk5ebn6Onq8vP09fb3+Pn6/9sAQwABAQEBAQECAQECAwICAgMFAwMDAwUGBQUFBQUGBwYGBgYGBgcHBwcHBwcHCAgICAgICgoKCgoLCwsLCwsLCwsL/9sAQwECAgIDAwMFAwMFDAgGCAwMDAwMDAwMDAwMDAwMDAwMDAwMDAwMDAwMDAwMDAwMDAwMDAwMDAwMDAwMDAwMDAwM/90ABAAL/9oADAMBAAIRAxEAPwD/AD/6ACgAoAKACgAoAKACgAoAKACgD//Q/wA/+gAoAKACgAoAKACgAoAKACgAoA//0f8AP/oAKACgAoA/oPP/AARn8EW/7EMvx+1HxjdR+Mk8OHxL5X7j+zggt/tX2cn75Oz5PPE2zPz7CnX9a/4hvT/sP+0XW/ecntLacm17fd1vv0P5o/4j1iHxb/YdPBL2HtfZX9/2l+fk57bb68lr20vc/En4XfC3xt8YPFUXg/wPbeZcScvI+RHEnd5HwcKP59BmvzHA4Gri6vsKC1/rU/sHg3gvNuKMzWV5RTvN7t/BBfzzfRf8Mk3oegfHz9nDxl+z7fWCeIp7e/sdS3/Z7i33YzHs3owcLtYZH1HfrjrzbJ6+AmvaaxfU+o8TvCbNeCq9FY+pCcKl+ScL20tdNNaPXzute6XtX7D3/BOH9pf/AIKBa9qem/AextbfT9GQfbtX1aR4bKJz9yLzI45XeRhzsRG45OBivzfjDjvKuGqSqZg3zPaC1m/O11p5ux+XxieIftRfsv8Axb/Y9+NOrfAT43WSWetaVsfzICXgmilVXjngkwN8bg9ccHKkB1YD1uHeIcHneAp5nl7vCf3p9U10a/4K0syT5rr2wCgD/9L/AD/6ACgD0n4afDTx58X/AB3pXwv+GGkXOt6/rdwLWxsrUZeVz2HYADJdiQqrkkgA0Af1LeLv+DbfwX8O/wBinXfiR46+IdxafE7QdEuNaueYP7FiNrG88lu++MT7AiMn2nzQAf3nl7ODfKieY/n58A/tB/tXfFrwhpX7Hmj+Mb0+GL1hbR6dK6rGIVy5RpMeaYUQZ8vftwMBele/hc3zTE0aeVLEP2T0t0t+dvIw4T8JcuzzinDvL8HT+v13ZTfTTWb6XSTbaV/Vn6s+AfAPwv8A2UfhfPdXFytvbWyCXUdRlH7yaToOBk9WxDGPX1Jz99hMLhsqw3vz9X3/AK6I/wBXOGeFuG/DTh6pUqVEoJXq1X8dSf576U6avvpdtt+Mfsz/ALLfxy/4LJftCR2ukQS+G/hh4Xl23uqOm7yUfBKIfuyXs4RfkB2Rj534DF/578VfFXDZPh/a19ajv7On1fm+y7v5I/gTxa8UsZxvmirtcmEpXVKHVJ2vOf8AfnZX6KySvq3/AGF/Eb4jfsh/8Ef/ANkC3/0aLQPC3h9Ps+m6Xb4N3qV2RnYmcGa5mYb5pT9wcuQgFfxFl2XZ5xznj156s9XP7EIfol0R+W7H+fJ+2r+198SP24/2hNZ/aF+JMUVpc6nsgtbK3yYrW2hG2KBC3L7R8zsfvuWbAzgf2/wrwzhOH8up5dg9lu3u293/AF00MT5Er6IAoA//0/8AP/oAKAP7rP8Ag3b/AGZv2d/AX7ISftfWv2W98aeIJb211fUblkP9mW9rO6C2QniBHjRLiZm+Zg6ZOwJW1ImR8S/8FDv+ChHxi/4Ki/GX/h3r/wAE890ng2SQjWtbUmKO+SMgSyyyKCYdNhJHbdOxCqrl4438PiHiPBZNgqmYZg7QX3t9El1b6fe7JNnrZNkuLzTFrB4NXm/uS7t9Ev8AgLWx8+/tp/8ABInwR+wp+zD/AMNP/Cjx1q9x4t8Hy2T3f2tYRb3BmmS2f7PEiB4/nkD7JJJf3YKPnOa/HvD3xmx+ccQLAPDqEHdwavdWTet9HoraJav5H69m/BT4Uw1PPsrxc1i6Dg76WvdLRfPVO6aunc+YP2NP2YP2pv8AgsH8V7Tw7rlz/Y/gLw3Kr61qcEW23gz/AAxKSRNdyDIRSf3YO/5Uzn9N8TvFSnk2DjUxj56r/h011fd9kur+SPlOOvFPiDi90YZxWXJDaEFaF/52us7aXey0Vru/9k/xI+I/7Hv/AASD/ZBgxbRaB4W8Pw/Z9K0u3wbvUrojOxc4M1xMw3zSt9wZdyEAr+KsDl+eccZ4/f56s9ZzfwQh+iWyR+fbH8ynwR/Zp/ax/wCDgH9oW/8A2j/2iNRn8I/CzRHktbL7Ku6OKPOfsenJJ8jv0a4uWHXsTsjH9scH8H4Lh7ALAYBf459Zvu/0XQxlI/O3/grN/wAE8dE/4J0/tBaZ8OvCOvy+INA8QaSNVsHvAi3cQ8x4mjnEYCv86EpIAoIOMZQ5+plGwH5SVIBQB//U/wA/+gAoA+pv2X/gv8ff2lviF/wzz8A/tUsniPY2oxLK8VotvC+ftF6VyPIgLZyVb5yFjVpHQHxuIOIMBkmCqZhmFS0F97fRJdW+n3uyuz08nyfE5pi1g8HG839yXd9kv+AtbI/ts/Zv/Zv/AGaP+CV37NWqalq+o21nbWVuL3xR4ovRslu5RwnyDe4QO/lwWseTl9ieZNI7P/FfEfEWccb5xToUKbd9KdNbQXd9L21nN226JJL+psmyXLOFsudSo1prOo92/wDL+SC/F3v/ADweLv2hPHv/AAW9/b08EfsvjUp/Bvw4ub+b+zbLhpRFbW808t3cANse9khjdI1yY4d+xM5kkk/obLeHsJ4fcN4rNOX22LSXO/NtJQXVU03r1drvol/PnGXGWIz3EdqK+CH6v+/+Wy6t/wBcfxI+I/7In/BIb9j6Ai2i8P8Ahbw9F9n0rS7fBu9SuiM7EzgzXMzDfNI33Bl3IQCv5ly/AZ5xxnju+epPWc38EIfol0XU+P2P4LP24P2rf2lv2/fHt5+0t8VrK9i8O2spstMht4pTpunRMRtgjk27PMbgyOfnkbsAEA/uDhHgjD8PZWqWCpvl+3Ut8c+7f5LoedLMcL9Y+rOsva78l1z2723sf1zT/wDBbj/gnF+zr+xFoHiD9n65ivNSstIitdI8EW8Tw3ENwEAMV38hSFI3yZptx8zBeMyEjP0vNA6eU/ig/aX/AGl/jD+138YdW+OXxx1Q6nrmqv8A7sMEIz5dvbx8iOGMHCKPqSXJY5lHzrQAUAf/1f8AP/oAKAP7SP8AglL8Rv2Dv2bf2Ao/ivYeJNK0fUpLc3XjK7u5U+3fa4i4ERiBMxRQdtrDGvz53oDJI+f5D8U8t4lzjif6l7Gc4bUkl7lnbW+1/wCdt6Ws9Ej+k/D7G5FluRfXPbJT3qX+O/a29v5Et797n5D/ALR37Qfx2/4LA/Gf+wfD3m+E/hV4clL2VvKNwQ4IFzcqrKk17IhOyMPshjJVDzJJL/Ufgr4JfVqbp0rOq1+9q20X9yHl5aN/HO2iX83eM3jVTpL2tX4P+XdJPV/357/frbZX1b+E/wBov9n7xl+xV8RvD/iLwV4nuDLPm90zVLLfZ3VvLCwzgxuWR0ypR1f8q/ReOOCYZPUjhsQ1Wp1k91v3TTuv8z8+4A48p8T4StUhR9jOi0mr3WuzTsvPQ+rvg14H/ao/4KnfEWz+KH7VvizVtb8M6B/o7Xd4+N4ype2tEACIXwDNIq+mcviufwv8KsHNuGBw6oYS95tL432T6/oeL4peJ2H4Yw3ssPaeMmvcXb+/Py7Lr6H7F/ta/Hn4F/so/slan8L76ytfs2q6RcaJomgRD/W+ZGY8lM5EcZKvLKT17mQjP9A8ZZlleTZM8HyrVOEIfLf0XV9/M/lDw14ez3ifimnmiqP3JqpUqvpre3q9lDtvofjF/wAE0P8AgmlrX7WevRfFL4qRS2Hw406X5tuUl1GRDzFCeoiVhiaZfeOM78tH+OcE8D1M1qfWcTphl/5O+y8u7+S12/pnxc8XKXDFJ5fl7U8fNeqpp/bn5/yQ+b0sn61/wWR/ZY/ZT/Z1k8HXPwTtotA8Qat5323SLeWSVXtowipckSO/k/OCnH+sO89UevR8SMhyvLJ0fqEOSbveF29NLPXb9d+543gLxjxDntPF/wBqv2tGFuSo0l77bvDRK+mvlouqPwlr8sP6ICgD/9b/AD/6ACgDf0WCwvtas7TVZ/s1tJKiSz4z5aEgF8d8DmtsOqbqpVHaN9X2XcxryqU6TdNXkk7Lu+x/RhdfED4O/so/B+3utP8AKg0m2T/Qre3IMt1IRkbD/G79Xdu3oK/quvmGUcN5WnTt7JbJbzf6t9WfxzDJ844pziUal/aP429oL9EuiPz++G/w8+J//BQf4rv8UfitI+n+EtNfylii4AjBz9nt89T/AM9JD/PAH5RlOVZhxjmbzDH6YZafL+SH6v8A4CP1/PM6yzgHKv7Oytc+Lnrr3/5+T8uy/wCCz9dfi7+0b8J/2MPg/Z2tpZRRyxRfZ9E0SH92ZSP++ikYJzM59e7kZ/V+IM+y/hvL0qaXNtCC/rbu/wBT+f8Ahvg/NONM0qOq3y3vUqPp5ebfRfofmZ+zV+zh8Tv+ChPxXn/aN/aTupf+EUEuMDMX2nyicWloM5jto+Vd175RSZC8ifk/DfDeN4pxss3zVv2N/S/9yHaC6v5LW7X7XxvxjlnAWVLIOHqa+t29eS//AC8qd6j6J+Ta5LKX7Q/tP/tx/Dr9hP4UWeieHrG1k8QSWot9D0OL93FHHGNiSSImNkEeMYH3yNidyn6jxXxTg+HsGqFBL2lvch0S7vsl079OrP5z8PfDjNONM0qYvE1H7G96tV6tveyvvN/ct30Uv5Ivil8VfHnxr+IOp/FP4oajLqut6tL5txcSn8AigcIiDARFGFAAAxX8wY3HVcZiHicQ7ze7P77yfJ8HlWDp5fl9NQpQVkl/WrfV9XqzyuuQ9MKAP//X/wA/+gAoAKACgD9xvCn7dHwF+HHwP0uDwzvfUrLT47aLRAkgxKEAKtKU2bMkl5M5fngnNf0NhfEfJsBk9OGE+NQSVOz3t1drWvu+vqfzLmPhXnmZ55WeJf7uc23Uutr9Fe97bLZeh+THj34peIviv8RP+E/+KMzahJNKnmoh2qsIP+piH8CAZC/nyck/h2YZxiMwxn1zHPnk3r6dl2XY/oHLMiw+V5f/AGfly5Elp6/zvu77/cfv18Qf+CjP7Pnwj+D9pc/Bm5tdWvZbcRaTpFvGYo7cAYHnqAPJSMY/d9X6JgZI/fs08RMnwGXr+y2pztaEErJevZLt1+9n8o5R4O57m2b1IZynCF71Kjabnr9ju332XXon/Pb8Q/iH40+K/jK/8ffEK9fUNW1F/MnnlPX+6oHRVUYCKBgDHav54x2OxGNxDxOJd5vd/wBdOyP61yjKMHleDp4DA01CnDRJf1q31Z5xXGekFABQB//Q/wA/+gAoAKACgAoAKACgAoAKACgAoA//0f8AP/oAKACgAoAKACgAoAKACgAoAKAP/9k=;" vertex="1" parent="r3z55FjVypWgNgjJTafg-55">
          <mxGeometry x="30.00346153846158" width="30" height="30" as="geometry" />
        </mxCell>
        <mxCell id="r3z55FjVypWgNgjJTafg-62" style="edgeStyle=orthogonalEdgeStyle;rounded=0;orthogonalLoop=1;jettySize=auto;html=1;entryX=0.5;entryY=0;entryDx=0;entryDy=0;" edge="1" parent="1" source="r3z55FjVypWgNgjJTafg-14" target="r3z55FjVypWgNgjJTafg-52">
          <mxGeometry relative="1" as="geometry" />
        </mxCell>
        <mxCell id="r3z55FjVypWgNgjJTafg-14" value="Newman-SRV&#xa;" style="shape=image;verticalLabelPosition=bottom;labelBackgroundColor=default;verticalAlign=top;aspect=fixed;imageAspect=0;image=data:image/jpeg,/9j/4AAQSkZJRgABAQAASABIAAD/4QBMRXhpZgAATU0AKgAAAAgAAYdpAAQAAAABAAAAGgAAAAAAA6ABAAMAAAABAAEAAKACAAQAAAABAAAAWKADAAQAAAABAAAAWAAAAAD/wAARCABYAFgDAREAAhEBAxEB/8QAHwAAAQUBAQEBAQEAAAAAAAAAAAECAwQFBgcICQoL/8QAtRAAAgEDAwIEAwUFBAQAAAF9AQIDAAQRBRIhMUEGE1FhByJxFDKBkaEII0KxwRVS0fAkM2JyggkKFhcYGRolJicoKSo0NTY3ODk6Q0RFRkdISUpTVFVWV1hZWmNkZWZnaGlqc3R1dnd4eXqDhIWGh4iJipKTlJWWl5iZmqKjpKWmp6ipqrKztLW2t7i5usLDxMXGx8jJytLT1NXW19jZ2uHi4+Tl5ufo6erx8vP09fb3+Pn6/8QAHwEAAwEBAQEBAQEBAQAAAAAAAAECAwQFBgcICQoL/8QAtREAAgECBAQDBAcFBAQAAQJ3AAECAxEEBSExBhJBUQdhcRMiMoEIFEKRobHBCSMzUvAVYnLRChYkNOEl8RcYGRomJygpKjU2Nzg5OkNERUZHSElKU1RVVldYWVpjZGVmZ2hpanN0dXZ3eHl6goOEhYaHiImKkpOUlZaXmJmaoqOkpaanqKmqsrO0tba3uLm6wsPExcbHyMnK0tPU1dbX2Nna4uPk5ebn6Onq8vP09fb3+Pn6/9sAQwABAQEBAQECAQECAwICAgMFAwMDAwUGBQUFBQUGBwYGBgYGBgcHBwcHBwcHCAgICAgICgoKCgoLCwsLCwsLCwsL/9sAQwECAgIDAwMFAwMFDAgGCAwMDAwMDAwMDAwMDAwMDAwMDAwMDAwMDAwMDAwMDAwMDAwMDAwMDAwMDAwMDAwMDAwM/90ABAAL/9oADAMBAAIRAxEAPwD/AD/6ACgAoAKACgAoAKACgAoAKACgD//Q/wA/+gAoAKACgAoAKACgAoAKACgAoA//0f8AP/oAKACgAoA/oPP/AARn8EW/7EMvx+1HxjdR+Mk8OHxL5X7j+zggt/tX2cn75Oz5PPE2zPz7CnX9a/4hvT/sP+0XW/ecntLacm17fd1vv0P5o/4j1iHxb/YdPBL2HtfZX9/2l+fk57bb68lr20vc/En4XfC3xt8YPFUXg/wPbeZcScvI+RHEnd5HwcKP59BmvzHA4Gri6vsKC1/rU/sHg3gvNuKMzWV5RTvN7t/BBfzzfRf8Mk3oegfHz9nDxl+z7fWCeIp7e/sdS3/Z7i33YzHs3owcLtYZH1HfrjrzbJ6+AmvaaxfU+o8TvCbNeCq9FY+pCcKl+ScL20tdNNaPXzute6XtX7D3/BOH9pf/AIKBa9qem/AextbfT9GQfbtX1aR4bKJz9yLzI45XeRhzsRG45OBivzfjDjvKuGqSqZg3zPaC1m/O11p5ux+XxieIftRfsv8Axb/Y9+NOrfAT43WSWetaVsfzICXgmilVXjngkwN8bg9ccHKkB1YD1uHeIcHneAp5nl7vCf3p9U10a/4K0syT5rr2wCgD/9L/AD/6ACgD0n4afDTx58X/AB3pXwv+GGkXOt6/rdwLWxsrUZeVz2HYADJdiQqrkkgA0Af1LeLv+DbfwX8O/wBinXfiR46+IdxafE7QdEuNaueYP7FiNrG88lu++MT7AiMn2nzQAf3nl7ODfKieY/n58A/tB/tXfFrwhpX7Hmj+Mb0+GL1hbR6dK6rGIVy5RpMeaYUQZ8vftwMBele/hc3zTE0aeVLEP2T0t0t+dvIw4T8JcuzzinDvL8HT+v13ZTfTTWb6XSTbaV/Vn6s+AfAPwv8A2UfhfPdXFytvbWyCXUdRlH7yaToOBk9WxDGPX1Jz99hMLhsqw3vz9X3/AK6I/wBXOGeFuG/DTh6pUqVEoJXq1X8dSf576U6avvpdtt+Mfsz/ALLfxy/4LJftCR2ukQS+G/hh4Xl23uqOm7yUfBKIfuyXs4RfkB2Rj534DF/578VfFXDZPh/a19ajv7On1fm+y7v5I/gTxa8UsZxvmirtcmEpXVKHVJ2vOf8AfnZX6KySvq3/AGF/Eb4jfsh/8Ef/ANkC3/0aLQPC3h9Ps+m6Xb4N3qV2RnYmcGa5mYb5pT9wcuQgFfxFl2XZ5xznj156s9XP7EIfol0R+W7H+fJ+2r+198SP24/2hNZ/aF+JMUVpc6nsgtbK3yYrW2hG2KBC3L7R8zsfvuWbAzgf2/wrwzhOH8up5dg9lu3u293/AF00MT5Er6IAoA//0/8AP/oAKAP7rP8Ag3b/AGZv2d/AX7ISftfWv2W98aeIJb211fUblkP9mW9rO6C2QniBHjRLiZm+Zg6ZOwJW1ImR8S/8FDv+ChHxi/4Ki/GX/h3r/wAE890ng2SQjWtbUmKO+SMgSyyyKCYdNhJHbdOxCqrl4438PiHiPBZNgqmYZg7QX3t9El1b6fe7JNnrZNkuLzTFrB4NXm/uS7t9Ev8AgLWx8+/tp/8ABInwR+wp+zD/AMNP/Cjx1q9x4t8Hy2T3f2tYRb3BmmS2f7PEiB4/nkD7JJJf3YKPnOa/HvD3xmx+ccQLAPDqEHdwavdWTet9HoraJav5H69m/BT4Uw1PPsrxc1i6Dg76WvdLRfPVO6aunc+YP2NP2YP2pv8AgsH8V7Tw7rlz/Y/gLw3Kr61qcEW23gz/AAxKSRNdyDIRSf3YO/5Uzn9N8TvFSnk2DjUxj56r/h011fd9kur+SPlOOvFPiDi90YZxWXJDaEFaF/52us7aXey0Vru/9k/xI+I/7Hv/AASD/ZBgxbRaB4W8Pw/Z9K0u3wbvUrojOxc4M1xMw3zSt9wZdyEAr+KsDl+eccZ4/f56s9ZzfwQh+iWyR+fbH8ynwR/Zp/ax/wCDgH9oW/8A2j/2iNRn8I/CzRHktbL7Ku6OKPOfsenJJ8jv0a4uWHXsTsjH9scH8H4Lh7ALAYBf459Zvu/0XQxlI/O3/grN/wAE8dE/4J0/tBaZ8OvCOvy+INA8QaSNVsHvAi3cQ8x4mjnEYCv86EpIAoIOMZQ5+plGwH5SVIBQB//U/wA/+gAoA+pv2X/gv8ff2lviF/wzz8A/tUsniPY2oxLK8VotvC+ftF6VyPIgLZyVb5yFjVpHQHxuIOIMBkmCqZhmFS0F97fRJdW+n3uyuz08nyfE5pi1g8HG839yXd9kv+AtbI/ts/Zv/Zv/AGaP+CV37NWqalq+o21nbWVuL3xR4ovRslu5RwnyDe4QO/lwWseTl9ieZNI7P/FfEfEWccb5xToUKbd9KdNbQXd9L21nN226JJL+psmyXLOFsudSo1prOo92/wDL+SC/F3v/ADweLv2hPHv/AAW9/b08EfsvjUp/Bvw4ub+b+zbLhpRFbW808t3cANse9khjdI1yY4d+xM5kkk/obLeHsJ4fcN4rNOX22LSXO/NtJQXVU03r1drvol/PnGXGWIz3EdqK+CH6v+/+Wy6t/wBcfxI+I/7In/BIb9j6Ai2i8P8Ahbw9F9n0rS7fBu9SuiM7EzgzXMzDfNI33Bl3IQCv5ly/AZ5xxnju+epPWc38EIfol0XU+P2P4LP24P2rf2lv2/fHt5+0t8VrK9i8O2spstMht4pTpunRMRtgjk27PMbgyOfnkbsAEA/uDhHgjD8PZWqWCpvl+3Ut8c+7f5LoedLMcL9Y+rOsva78l1z2723sf1zT/wDBbj/gnF+zr+xFoHiD9n65ivNSstIitdI8EW8Tw3ENwEAMV38hSFI3yZptx8zBeMyEjP0vNA6eU/ig/aX/AGl/jD+138YdW+OXxx1Q6nrmqv8A7sMEIz5dvbx8iOGMHCKPqSXJY5lHzrQAUAf/1f8AP/oAKAP7SP8AglL8Rv2Dv2bf2Ao/ivYeJNK0fUpLc3XjK7u5U+3fa4i4ERiBMxRQdtrDGvz53oDJI+f5D8U8t4lzjif6l7Gc4bUkl7lnbW+1/wCdt6Ws9Ej+k/D7G5FluRfXPbJT3qX+O/a29v5Et797n5D/ALR37Qfx2/4LA/Gf+wfD3m+E/hV4clL2VvKNwQ4IFzcqrKk17IhOyMPshjJVDzJJL/Ufgr4JfVqbp0rOq1+9q20X9yHl5aN/HO2iX83eM3jVTpL2tX4P+XdJPV/357/frbZX1b+E/wBov9n7xl+xV8RvD/iLwV4nuDLPm90zVLLfZ3VvLCwzgxuWR0ypR1f8q/ReOOCYZPUjhsQ1Wp1k91v3TTuv8z8+4A48p8T4StUhR9jOi0mr3WuzTsvPQ+rvg14H/ao/4KnfEWz+KH7VvizVtb8M6B/o7Xd4+N4ype2tEACIXwDNIq+mcviufwv8KsHNuGBw6oYS95tL432T6/oeL4peJ2H4Yw3ssPaeMmvcXb+/Py7Lr6H7F/ta/Hn4F/so/slan8L76ytfs2q6RcaJomgRD/W+ZGY8lM5EcZKvLKT17mQjP9A8ZZlleTZM8HyrVOEIfLf0XV9/M/lDw14ez3ifimnmiqP3JqpUqvpre3q9lDtvofjF/wAE0P8AgmlrX7WevRfFL4qRS2Hw406X5tuUl1GRDzFCeoiVhiaZfeOM78tH+OcE8D1M1qfWcTphl/5O+y8u7+S12/pnxc8XKXDFJ5fl7U8fNeqpp/bn5/yQ+b0sn61/wWR/ZY/ZT/Z1k8HXPwTtotA8Qat5323SLeWSVXtowipckSO/k/OCnH+sO89UevR8SMhyvLJ0fqEOSbveF29NLPXb9d+543gLxjxDntPF/wBqv2tGFuSo0l77bvDRK+mvlouqPwlr8sP6ICgD/9b/AD/6ACgDf0WCwvtas7TVZ/s1tJKiSz4z5aEgF8d8DmtsOqbqpVHaN9X2XcxryqU6TdNXkk7Lu+x/RhdfED4O/so/B+3utP8AKg0m2T/Qre3IMt1IRkbD/G79Xdu3oK/quvmGUcN5WnTt7JbJbzf6t9WfxzDJ844pziUal/aP429oL9EuiPz++G/w8+J//BQf4rv8UfitI+n+EtNfylii4AjBz9nt89T/AM9JD/PAH5RlOVZhxjmbzDH6YZafL+SH6v8A4CP1/PM6yzgHKv7Oytc+Lnrr3/5+T8uy/wCCz9dfi7+0b8J/2MPg/Z2tpZRRyxRfZ9E0SH92ZSP++ikYJzM59e7kZ/V+IM+y/hvL0qaXNtCC/rbu/wBT+f8Ahvg/NONM0qOq3y3vUqPp5ebfRfofmZ+zV+zh8Tv+ChPxXn/aN/aTupf+EUEuMDMX2nyicWloM5jto+Vd175RSZC8ifk/DfDeN4pxss3zVv2N/S/9yHaC6v5LW7X7XxvxjlnAWVLIOHqa+t29eS//AC8qd6j6J+Ta5LKX7Q/tP/tx/Dr9hP4UWeieHrG1k8QSWot9D0OL93FHHGNiSSImNkEeMYH3yNidyn6jxXxTg+HsGqFBL2lvch0S7vsl079OrP5z8PfDjNONM0qYvE1H7G96tV6tveyvvN/ct30Uv5Ivil8VfHnxr+IOp/FP4oajLqut6tL5txcSn8AigcIiDARFGFAAAxX8wY3HVcZiHicQ7ze7P77yfJ8HlWDp5fl9NQpQVkl/WrfV9XqzyuuQ9MKAP//X/wA/+gAoAKACgD9xvCn7dHwF+HHwP0uDwzvfUrLT47aLRAkgxKEAKtKU2bMkl5M5fngnNf0NhfEfJsBk9OGE+NQSVOz3t1drWvu+vqfzLmPhXnmZ55WeJf7uc23Uutr9Fe97bLZeh+THj34peIviv8RP+E/+KMzahJNKnmoh2qsIP+piH8CAZC/nyck/h2YZxiMwxn1zHPnk3r6dl2XY/oHLMiw+V5f/AGfly5Elp6/zvu77/cfv18Qf+CjP7Pnwj+D9pc/Bm5tdWvZbcRaTpFvGYo7cAYHnqAPJSMY/d9X6JgZI/fs08RMnwGXr+y2pztaEErJevZLt1+9n8o5R4O57m2b1IZynCF71Kjabnr9ju332XXon/Pb8Q/iH40+K/jK/8ffEK9fUNW1F/MnnlPX+6oHRVUYCKBgDHav54x2OxGNxDxOJd5vd/wBdOyP61yjKMHleDp4DA01CnDRJf1q31Z5xXGekFABQB//Q/wA/+gAoAKACgAoAKACgAoAKACgAoA//0f8AP/oAKACgAoAKACgAoAKACgAoAKAP/9k=;" vertex="1" parent="1">
          <mxGeometry x="358.2528571428572" y="230" width="60" height="60" as="geometry" />
        </mxCell>
        <mxCell id="r3z55FjVypWgNgjJTafg-52" value="" style="shape=image;verticalLabelPosition=bottom;labelBackgroundColor=default;verticalAlign=top;aspect=fixed;imageAspect=0;image=data:image/jpeg,/9j/4AAQSkZJRgABAQAASABIAAD/4QBMRXhpZgAATU0AKgAAAAgAAYdpAAQAAAABAAAAGgAAAAAAA6ABAAMAAAABAAEAAKACAAQAAAABAAAAWKADAAQAAAABAAAAWAAAAAD/wAARCABYAFgDAREAAhEBAxEB/8QAHwAAAQUBAQEBAQEAAAAAAAAAAAECAwQFBgcICQoL/8QAtRAAAgEDAwIEAwUFBAQAAAF9AQIDAAQRBRIhMUEGE1FhByJxFDKBkaEII0KxwRVS0fAkM2JyggkKFhcYGRolJicoKSo0NTY3ODk6Q0RFRkdISUpTVFVWV1hZWmNkZWZnaGlqc3R1dnd4eXqDhIWGh4iJipKTlJWWl5iZmqKjpKWmp6ipqrKztLW2t7i5usLDxMXGx8jJytLT1NXW19jZ2uHi4+Tl5ufo6erx8vP09fb3+Pn6/8QAHwEAAwEBAQEBAQEBAQAAAAAAAAECAwQFBgcICQoL/8QAtREAAgECBAQDBAcFBAQAAQJ3AAECAxEEBSExBhJBUQdhcRMiMoEIFEKRobHBCSMzUvAVYnLRChYkNOEl8RcYGRomJygpKjU2Nzg5OkNERUZHSElKU1RVVldYWVpjZGVmZ2hpanN0dXZ3eHl6goOEhYaHiImKkpOUlZaXmJmaoqOkpaanqKmqsrO0tba3uLm6wsPExcbHyMnK0tPU1dbX2Nna4uPk5ebn6Onq8vP09fb3+Pn6/9sAQwABAQEBAQECAQECAwICAgMFAwMDAwUGBQUFBQUGBwYGBgYGBgcHBwcHBwcHCAgICAgICgoKCgoLCwsLCwsLCwsL/9sAQwECAgIDAwMFAwMFDAgGCAwMDAwMDAwMDAwMDAwMDAwMDAwMDAwMDAwMDAwMDAwMDAwMDAwMDAwMDAwMDAwMDAwM/90ABAAL/9oADAMBAAIRAxEAPwD/AD/6ACgAoAKACgAoAKACgAoAKACgD//Q/wA/+gAoAKACgAoAKACgAoAKACgAoA//0f8AP/oAKACgAoA/oPP/AARn8EW/7EMvx+1HxjdR+Mk8OHxL5X7j+zggt/tX2cn75Oz5PPE2zPz7CnX9a/4hvT/sP+0XW/ecntLacm17fd1vv0P5o/4j1iHxb/YdPBL2HtfZX9/2l+fk57bb68lr20vc/En4XfC3xt8YPFUXg/wPbeZcScvI+RHEnd5HwcKP59BmvzHA4Gri6vsKC1/rU/sHg3gvNuKMzWV5RTvN7t/BBfzzfRf8Mk3oegfHz9nDxl+z7fWCeIp7e/sdS3/Z7i33YzHs3owcLtYZH1HfrjrzbJ6+AmvaaxfU+o8TvCbNeCq9FY+pCcKl+ScL20tdNNaPXzute6XtX7D3/BOH9pf/AIKBa9qem/AextbfT9GQfbtX1aR4bKJz9yLzI45XeRhzsRG45OBivzfjDjvKuGqSqZg3zPaC1m/O11p5ux+XxieIftRfsv8Axb/Y9+NOrfAT43WSWetaVsfzICXgmilVXjngkwN8bg9ccHKkB1YD1uHeIcHneAp5nl7vCf3p9U10a/4K0syT5rr2wCgD/9L/AD/6ACgD0n4afDTx58X/AB3pXwv+GGkXOt6/rdwLWxsrUZeVz2HYADJdiQqrkkgA0Af1LeLv+DbfwX8O/wBinXfiR46+IdxafE7QdEuNaueYP7FiNrG88lu++MT7AiMn2nzQAf3nl7ODfKieY/n58A/tB/tXfFrwhpX7Hmj+Mb0+GL1hbR6dK6rGIVy5RpMeaYUQZ8vftwMBele/hc3zTE0aeVLEP2T0t0t+dvIw4T8JcuzzinDvL8HT+v13ZTfTTWb6XSTbaV/Vn6s+AfAPwv8A2UfhfPdXFytvbWyCXUdRlH7yaToOBk9WxDGPX1Jz99hMLhsqw3vz9X3/AK6I/wBXOGeFuG/DTh6pUqVEoJXq1X8dSf576U6avvpdtt+Mfsz/ALLfxy/4LJftCR2ukQS+G/hh4Xl23uqOm7yUfBKIfuyXs4RfkB2Rj534DF/578VfFXDZPh/a19ajv7On1fm+y7v5I/gTxa8UsZxvmirtcmEpXVKHVJ2vOf8AfnZX6KySvq3/AGF/Eb4jfsh/8Ef/ANkC3/0aLQPC3h9Ps+m6Xb4N3qV2RnYmcGa5mYb5pT9wcuQgFfxFl2XZ5xznj156s9XP7EIfol0R+W7H+fJ+2r+198SP24/2hNZ/aF+JMUVpc6nsgtbK3yYrW2hG2KBC3L7R8zsfvuWbAzgf2/wrwzhOH8up5dg9lu3u293/AF00MT5Er6IAoA//0/8AP/oAKAP7rP8Ag3b/AGZv2d/AX7ISftfWv2W98aeIJb211fUblkP9mW9rO6C2QniBHjRLiZm+Zg6ZOwJW1ImR8S/8FDv+ChHxi/4Ki/GX/h3r/wAE890ng2SQjWtbUmKO+SMgSyyyKCYdNhJHbdOxCqrl4438PiHiPBZNgqmYZg7QX3t9El1b6fe7JNnrZNkuLzTFrB4NXm/uS7t9Ev8AgLWx8+/tp/8ABInwR+wp+zD/AMNP/Cjx1q9x4t8Hy2T3f2tYRb3BmmS2f7PEiB4/nkD7JJJf3YKPnOa/HvD3xmx+ccQLAPDqEHdwavdWTet9HoraJav5H69m/BT4Uw1PPsrxc1i6Dg76WvdLRfPVO6aunc+YP2NP2YP2pv8AgsH8V7Tw7rlz/Y/gLw3Kr61qcEW23gz/AAxKSRNdyDIRSf3YO/5Uzn9N8TvFSnk2DjUxj56r/h011fd9kur+SPlOOvFPiDi90YZxWXJDaEFaF/52us7aXey0Vru/9k/xI+I/7Hv/AASD/ZBgxbRaB4W8Pw/Z9K0u3wbvUrojOxc4M1xMw3zSt9wZdyEAr+KsDl+eccZ4/f56s9ZzfwQh+iWyR+fbH8ynwR/Zp/ax/wCDgH9oW/8A2j/2iNRn8I/CzRHktbL7Ku6OKPOfsenJJ8jv0a4uWHXsTsjH9scH8H4Lh7ALAYBf459Zvu/0XQxlI/O3/grN/wAE8dE/4J0/tBaZ8OvCOvy+INA8QaSNVsHvAi3cQ8x4mjnEYCv86EpIAoIOMZQ5+plGwH5SVIBQB//U/wA/+gAoA+pv2X/gv8ff2lviF/wzz8A/tUsniPY2oxLK8VotvC+ftF6VyPIgLZyVb5yFjVpHQHxuIOIMBkmCqZhmFS0F97fRJdW+n3uyuz08nyfE5pi1g8HG839yXd9kv+AtbI/ts/Zv/Zv/AGaP+CV37NWqalq+o21nbWVuL3xR4ovRslu5RwnyDe4QO/lwWseTl9ieZNI7P/FfEfEWccb5xToUKbd9KdNbQXd9L21nN226JJL+psmyXLOFsudSo1prOo92/wDL+SC/F3v/ADweLv2hPHv/AAW9/b08EfsvjUp/Bvw4ub+b+zbLhpRFbW808t3cANse9khjdI1yY4d+xM5kkk/obLeHsJ4fcN4rNOX22LSXO/NtJQXVU03r1drvol/PnGXGWIz3EdqK+CH6v+/+Wy6t/wBcfxI+I/7In/BIb9j6Ai2i8P8Ahbw9F9n0rS7fBu9SuiM7EzgzXMzDfNI33Bl3IQCv5ly/AZ5xxnju+epPWc38EIfol0XU+P2P4LP24P2rf2lv2/fHt5+0t8VrK9i8O2spstMht4pTpunRMRtgjk27PMbgyOfnkbsAEA/uDhHgjD8PZWqWCpvl+3Ut8c+7f5LoedLMcL9Y+rOsva78l1z2723sf1zT/wDBbj/gnF+zr+xFoHiD9n65ivNSstIitdI8EW8Tw3ENwEAMV38hSFI3yZptx8zBeMyEjP0vNA6eU/ig/aX/AGl/jD+138YdW+OXxx1Q6nrmqv8A7sMEIz5dvbx8iOGMHCKPqSXJY5lHzrQAUAf/1f8AP/oAKAP7SP8AglL8Rv2Dv2bf2Ao/ivYeJNK0fUpLc3XjK7u5U+3fa4i4ERiBMxRQdtrDGvz53oDJI+f5D8U8t4lzjif6l7Gc4bUkl7lnbW+1/wCdt6Ws9Ej+k/D7G5FluRfXPbJT3qX+O/a29v5Et797n5D/ALR37Qfx2/4LA/Gf+wfD3m+E/hV4clL2VvKNwQ4IFzcqrKk17IhOyMPshjJVDzJJL/Ufgr4JfVqbp0rOq1+9q20X9yHl5aN/HO2iX83eM3jVTpL2tX4P+XdJPV/357/frbZX1b+E/wBov9n7xl+xV8RvD/iLwV4nuDLPm90zVLLfZ3VvLCwzgxuWR0ypR1f8q/ReOOCYZPUjhsQ1Wp1k91v3TTuv8z8+4A48p8T4StUhR9jOi0mr3WuzTsvPQ+rvg14H/ao/4KnfEWz+KH7VvizVtb8M6B/o7Xd4+N4ype2tEACIXwDNIq+mcviufwv8KsHNuGBw6oYS95tL432T6/oeL4peJ2H4Yw3ssPaeMmvcXb+/Py7Lr6H7F/ta/Hn4F/so/slan8L76ytfs2q6RcaJomgRD/W+ZGY8lM5EcZKvLKT17mQjP9A8ZZlleTZM8HyrVOEIfLf0XV9/M/lDw14ez3ifimnmiqP3JqpUqvpre3q9lDtvofjF/wAE0P8AgmlrX7WevRfFL4qRS2Hw406X5tuUl1GRDzFCeoiVhiaZfeOM78tH+OcE8D1M1qfWcTphl/5O+y8u7+S12/pnxc8XKXDFJ5fl7U8fNeqpp/bn5/yQ+b0sn61/wWR/ZY/ZT/Z1k8HXPwTtotA8Qat5323SLeWSVXtowipckSO/k/OCnH+sO89UevR8SMhyvLJ0fqEOSbveF29NLPXb9d+543gLxjxDntPF/wBqv2tGFuSo0l77bvDRK+mvlouqPwlr8sP6ICgD/9b/AD/6ACgDf0WCwvtas7TVZ/s1tJKiSz4z5aEgF8d8DmtsOqbqpVHaN9X2XcxryqU6TdNXkk7Lu+x/RhdfED4O/so/B+3utP8AKg0m2T/Qre3IMt1IRkbD/G79Xdu3oK/quvmGUcN5WnTt7JbJbzf6t9WfxzDJ844pziUal/aP429oL9EuiPz++G/w8+J//BQf4rv8UfitI+n+EtNfylii4AjBz9nt89T/AM9JD/PAH5RlOVZhxjmbzDH6YZafL+SH6v8A4CP1/PM6yzgHKv7Oytc+Lnrr3/5+T8uy/wCCz9dfi7+0b8J/2MPg/Z2tpZRRyxRfZ9E0SH92ZSP++ikYJzM59e7kZ/V+IM+y/hvL0qaXNtCC/rbu/wBT+f8Ahvg/NONM0qOq3y3vUqPp5ebfRfofmZ+zV+zh8Tv+ChPxXn/aN/aTupf+EUEuMDMX2nyicWloM5jto+Vd175RSZC8ifk/DfDeN4pxss3zVv2N/S/9yHaC6v5LW7X7XxvxjlnAWVLIOHqa+t29eS//AC8qd6j6J+Ta5LKX7Q/tP/tx/Dr9hP4UWeieHrG1k8QSWot9D0OL93FHHGNiSSImNkEeMYH3yNidyn6jxXxTg+HsGqFBL2lvch0S7vsl079OrP5z8PfDjNONM0qYvE1H7G96tV6tveyvvN/ct30Uv5Ivil8VfHnxr+IOp/FP4oajLqut6tL5txcSn8AigcIiDARFGFAAAxX8wY3HVcZiHicQ7ze7P77yfJ8HlWDp5fl9NQpQVkl/WrfV9XqzyuuQ9MKAP//X/wA/+gAoAKACgD9xvCn7dHwF+HHwP0uDwzvfUrLT47aLRAkgxKEAKtKU2bMkl5M5fngnNf0NhfEfJsBk9OGE+NQSVOz3t1drWvu+vqfzLmPhXnmZ55WeJf7uc23Uutr9Fe97bLZeh+THj34peIviv8RP+E/+KMzahJNKnmoh2qsIP+piH8CAZC/nyck/h2YZxiMwxn1zHPnk3r6dl2XY/oHLMiw+V5f/AGfly5Elp6/zvu77/cfv18Qf+CjP7Pnwj+D9pc/Bm5tdWvZbcRaTpFvGYo7cAYHnqAPJSMY/d9X6JgZI/fs08RMnwGXr+y2pztaEErJevZLt1+9n8o5R4O57m2b1IZynCF71Kjabnr9ju332XXon/Pb8Q/iH40+K/jK/8ffEK9fUNW1F/MnnlPX+6oHRVUYCKBgDHav54x2OxGNxDxOJd5vd/wBdOyP61yjKMHleDp4DA01CnDRJf1q31Z5xXGekFABQB//Q/wA/+gAoAKACgAoAKACgAoAKACgAoA//0f8AP/oAKACgAoAKACgAoAKACgAoAKAP/9k=;" vertex="1" parent="1">
          <mxGeometry x="373.2552197802197" y="410" width="30" height="30" as="geometry" />
        </mxCell>
        <mxCell id="r3z55FjVypWgNgjJTafg-53" value="Newman agent group" style="shape=image;verticalLabelPosition=bottom;labelBackgroundColor=default;verticalAlign=top;aspect=fixed;imageAspect=0;image=data:image/jpeg,/9j/4AAQSkZJRgABAQAASABIAAD/4QBMRXhpZgAATU0AKgAAAAgAAYdpAAQAAAABAAAAGgAAAAAAA6ABAAMAAAABAAEAAKACAAQAAAABAAAAWKADAAQAAAABAAAAWAAAAAD/wAARCABYAFgDAREAAhEBAxEB/8QAHwAAAQUBAQEBAQEAAAAAAAAAAAECAwQFBgcICQoL/8QAtRAAAgEDAwIEAwUFBAQAAAF9AQIDAAQRBRIhMUEGE1FhByJxFDKBkaEII0KxwRVS0fAkM2JyggkKFhcYGRolJicoKSo0NTY3ODk6Q0RFRkdISUpTVFVWV1hZWmNkZWZnaGlqc3R1dnd4eXqDhIWGh4iJipKTlJWWl5iZmqKjpKWmp6ipqrKztLW2t7i5usLDxMXGx8jJytLT1NXW19jZ2uHi4+Tl5ufo6erx8vP09fb3+Pn6/8QAHwEAAwEBAQEBAQEBAQAAAAAAAAECAwQFBgcICQoL/8QAtREAAgECBAQDBAcFBAQAAQJ3AAECAxEEBSExBhJBUQdhcRMiMoEIFEKRobHBCSMzUvAVYnLRChYkNOEl8RcYGRomJygpKjU2Nzg5OkNERUZHSElKU1RVVldYWVpjZGVmZ2hpanN0dXZ3eHl6goOEhYaHiImKkpOUlZaXmJmaoqOkpaanqKmqsrO0tba3uLm6wsPExcbHyMnK0tPU1dbX2Nna4uPk5ebn6Onq8vP09fb3+Pn6/9sAQwABAQEBAQECAQECAwICAgMFAwMDAwUGBQUFBQUGBwYGBgYGBgcHBwcHBwcHCAgICAgICgoKCgoLCwsLCwsLCwsL/9sAQwECAgIDAwMFAwMFDAgGCAwMDAwMDAwMDAwMDAwMDAwMDAwMDAwMDAwMDAwMDAwMDAwMDAwMDAwMDAwMDAwMDAwM/90ABAAL/9oADAMBAAIRAxEAPwD/AD/6ACgAoAKACgAoAKACgAoAKACgD//Q/wA/+gAoAKACgAoAKACgAoAKACgAoA//0f8AP/oAKACgAoA/oPP/AARn8EW/7EMvx+1HxjdR+Mk8OHxL5X7j+zggt/tX2cn75Oz5PPE2zPz7CnX9a/4hvT/sP+0XW/ecntLacm17fd1vv0P5o/4j1iHxb/YdPBL2HtfZX9/2l+fk57bb68lr20vc/En4XfC3xt8YPFUXg/wPbeZcScvI+RHEnd5HwcKP59BmvzHA4Gri6vsKC1/rU/sHg3gvNuKMzWV5RTvN7t/BBfzzfRf8Mk3oegfHz9nDxl+z7fWCeIp7e/sdS3/Z7i33YzHs3owcLtYZH1HfrjrzbJ6+AmvaaxfU+o8TvCbNeCq9FY+pCcKl+ScL20tdNNaPXzute6XtX7D3/BOH9pf/AIKBa9qem/AextbfT9GQfbtX1aR4bKJz9yLzI45XeRhzsRG45OBivzfjDjvKuGqSqZg3zPaC1m/O11p5ux+XxieIftRfsv8Axb/Y9+NOrfAT43WSWetaVsfzICXgmilVXjngkwN8bg9ccHKkB1YD1uHeIcHneAp5nl7vCf3p9U10a/4K0syT5rr2wCgD/9L/AD/6ACgD0n4afDTx58X/AB3pXwv+GGkXOt6/rdwLWxsrUZeVz2HYADJdiQqrkkgA0Af1LeLv+DbfwX8O/wBinXfiR46+IdxafE7QdEuNaueYP7FiNrG88lu++MT7AiMn2nzQAf3nl7ODfKieY/n58A/tB/tXfFrwhpX7Hmj+Mb0+GL1hbR6dK6rGIVy5RpMeaYUQZ8vftwMBele/hc3zTE0aeVLEP2T0t0t+dvIw4T8JcuzzinDvL8HT+v13ZTfTTWb6XSTbaV/Vn6s+AfAPwv8A2UfhfPdXFytvbWyCXUdRlH7yaToOBk9WxDGPX1Jz99hMLhsqw3vz9X3/AK6I/wBXOGeFuG/DTh6pUqVEoJXq1X8dSf576U6avvpdtt+Mfsz/ALLfxy/4LJftCR2ukQS+G/hh4Xl23uqOm7yUfBKIfuyXs4RfkB2Rj534DF/578VfFXDZPh/a19ajv7On1fm+y7v5I/gTxa8UsZxvmirtcmEpXVKHVJ2vOf8AfnZX6KySvq3/AGF/Eb4jfsh/8Ef/ANkC3/0aLQPC3h9Ps+m6Xb4N3qV2RnYmcGa5mYb5pT9wcuQgFfxFl2XZ5xznj156s9XP7EIfol0R+W7H+fJ+2r+198SP24/2hNZ/aF+JMUVpc6nsgtbK3yYrW2hG2KBC3L7R8zsfvuWbAzgf2/wrwzhOH8up5dg9lu3u293/AF00MT5Er6IAoA//0/8AP/oAKAP7rP8Ag3b/AGZv2d/AX7ISftfWv2W98aeIJb211fUblkP9mW9rO6C2QniBHjRLiZm+Zg6ZOwJW1ImR8S/8FDv+ChHxi/4Ki/GX/h3r/wAE890ng2SQjWtbUmKO+SMgSyyyKCYdNhJHbdOxCqrl4438PiHiPBZNgqmYZg7QX3t9El1b6fe7JNnrZNkuLzTFrB4NXm/uS7t9Ev8AgLWx8+/tp/8ABInwR+wp+zD/AMNP/Cjx1q9x4t8Hy2T3f2tYRb3BmmS2f7PEiB4/nkD7JJJf3YKPnOa/HvD3xmx+ccQLAPDqEHdwavdWTet9HoraJav5H69m/BT4Uw1PPsrxc1i6Dg76WvdLRfPVO6aunc+YP2NP2YP2pv8AgsH8V7Tw7rlz/Y/gLw3Kr61qcEW23gz/AAxKSRNdyDIRSf3YO/5Uzn9N8TvFSnk2DjUxj56r/h011fd9kur+SPlOOvFPiDi90YZxWXJDaEFaF/52us7aXey0Vru/9k/xI+I/7Hv/AASD/ZBgxbRaB4W8Pw/Z9K0u3wbvUrojOxc4M1xMw3zSt9wZdyEAr+KsDl+eccZ4/f56s9ZzfwQh+iWyR+fbH8ynwR/Zp/ax/wCDgH9oW/8A2j/2iNRn8I/CzRHktbL7Ku6OKPOfsenJJ8jv0a4uWHXsTsjH9scH8H4Lh7ALAYBf459Zvu/0XQxlI/O3/grN/wAE8dE/4J0/tBaZ8OvCOvy+INA8QaSNVsHvAi3cQ8x4mjnEYCv86EpIAoIOMZQ5+plGwH5SVIBQB//U/wA/+gAoA+pv2X/gv8ff2lviF/wzz8A/tUsniPY2oxLK8VotvC+ftF6VyPIgLZyVb5yFjVpHQHxuIOIMBkmCqZhmFS0F97fRJdW+n3uyuz08nyfE5pi1g8HG839yXd9kv+AtbI/ts/Zv/Zv/AGaP+CV37NWqalq+o21nbWVuL3xR4ovRslu5RwnyDe4QO/lwWseTl9ieZNI7P/FfEfEWccb5xToUKbd9KdNbQXd9L21nN226JJL+psmyXLOFsudSo1prOo92/wDL+SC/F3v/ADweLv2hPHv/AAW9/b08EfsvjUp/Bvw4ub+b+zbLhpRFbW808t3cANse9khjdI1yY4d+xM5kkk/obLeHsJ4fcN4rNOX22LSXO/NtJQXVU03r1drvol/PnGXGWIz3EdqK+CH6v+/+Wy6t/wBcfxI+I/7In/BIb9j6Ai2i8P8Ahbw9F9n0rS7fBu9SuiM7EzgzXMzDfNI33Bl3IQCv5ly/AZ5xxnju+epPWc38EIfol0XU+P2P4LP24P2rf2lv2/fHt5+0t8VrK9i8O2spstMht4pTpunRMRtgjk27PMbgyOfnkbsAEA/uDhHgjD8PZWqWCpvl+3Ut8c+7f5LoedLMcL9Y+rOsva78l1z2723sf1zT/wDBbj/gnF+zr+xFoHiD9n65ivNSstIitdI8EW8Tw3ENwEAMV38hSFI3yZptx8zBeMyEjP0vNA6eU/ig/aX/AGl/jD+138YdW+OXxx1Q6nrmqv8A7sMEIz5dvbx8iOGMHCKPqSXJY5lHzrQAUAf/1f8AP/oAKAP7SP8AglL8Rv2Dv2bf2Ao/ivYeJNK0fUpLc3XjK7u5U+3fa4i4ERiBMxRQdtrDGvz53oDJI+f5D8U8t4lzjif6l7Gc4bUkl7lnbW+1/wCdt6Ws9Ej+k/D7G5FluRfXPbJT3qX+O/a29v5Et797n5D/ALR37Qfx2/4LA/Gf+wfD3m+E/hV4clL2VvKNwQ4IFzcqrKk17IhOyMPshjJVDzJJL/Ufgr4JfVqbp0rOq1+9q20X9yHl5aN/HO2iX83eM3jVTpL2tX4P+XdJPV/357/frbZX1b+E/wBov9n7xl+xV8RvD/iLwV4nuDLPm90zVLLfZ3VvLCwzgxuWR0ypR1f8q/ReOOCYZPUjhsQ1Wp1k91v3TTuv8z8+4A48p8T4StUhR9jOi0mr3WuzTsvPQ+rvg14H/ao/4KnfEWz+KH7VvizVtb8M6B/o7Xd4+N4ype2tEACIXwDNIq+mcviufwv8KsHNuGBw6oYS95tL432T6/oeL4peJ2H4Yw3ssPaeMmvcXb+/Py7Lr6H7F/ta/Hn4F/so/slan8L76ytfs2q6RcaJomgRD/W+ZGY8lM5EcZKvLKT17mQjP9A8ZZlleTZM8HyrVOEIfLf0XV9/M/lDw14ez3ifimnmiqP3JqpUqvpre3q9lDtvofjF/wAE0P8AgmlrX7WevRfFL4qRS2Hw406X5tuUl1GRDzFCeoiVhiaZfeOM78tH+OcE8D1M1qfWcTphl/5O+y8u7+S12/pnxc8XKXDFJ5fl7U8fNeqpp/bn5/yQ+b0sn61/wWR/ZY/ZT/Z1k8HXPwTtotA8Qat5323SLeWSVXtowipckSO/k/OCnH+sO89UevR8SMhyvLJ0fqEOSbveF29NLPXb9d+543gLxjxDntPF/wBqv2tGFuSo0l77bvDRK+mvlouqPwlr8sP6ICgD/9b/AD/6ACgDf0WCwvtas7TVZ/s1tJKiSz4z5aEgF8d8DmtsOqbqpVHaN9X2XcxryqU6TdNXkk7Lu+x/RhdfED4O/so/B+3utP8AKg0m2T/Qre3IMt1IRkbD/G79Xdu3oK/quvmGUcN5WnTt7JbJbzf6t9WfxzDJ844pziUal/aP429oL9EuiPz++G/w8+J//BQf4rv8UfitI+n+EtNfylii4AjBz9nt89T/AM9JD/PAH5RlOVZhxjmbzDH6YZafL+SH6v8A4CP1/PM6yzgHKv7Oytc+Lnrr3/5+T8uy/wCCz9dfi7+0b8J/2MPg/Z2tpZRRyxRfZ9E0SH92ZSP++ikYJzM59e7kZ/V+IM+y/hvL0qaXNtCC/rbu/wBT+f8Ahvg/NONM0qOq3y3vUqPp5ebfRfofmZ+zV+zh8Tv+ChPxXn/aN/aTupf+EUEuMDMX2nyicWloM5jto+Vd175RSZC8ifk/DfDeN4pxss3zVv2N/S/9yHaC6v5LW7X7XxvxjlnAWVLIOHqa+t29eS//AC8qd6j6J+Ta5LKX7Q/tP/tx/Dr9hP4UWeieHrG1k8QSWot9D0OL93FHHGNiSSImNkEeMYH3yNidyn6jxXxTg+HsGqFBL2lvch0S7vsl079OrP5z8PfDjNONM0qYvE1H7G96tV6tveyvvN/ct30Uv5Ivil8VfHnxr+IOp/FP4oajLqut6tL5txcSn8AigcIiDARFGFAAAxX8wY3HVcZiHicQ7ze7P77yfJ8HlWDp5fl9NQpQVkl/WrfV9XqzyuuQ9MKAP//X/wA/+gAoAKACgD9xvCn7dHwF+HHwP0uDwzvfUrLT47aLRAkgxKEAKtKU2bMkl5M5fngnNf0NhfEfJsBk9OGE+NQSVOz3t1drWvu+vqfzLmPhXnmZ55WeJf7uc23Uutr9Fe97bLZeh+THj34peIviv8RP+E/+KMzahJNKnmoh2qsIP+piH8CAZC/nyck/h2YZxiMwxn1zHPnk3r6dl2XY/oHLMiw+V5f/AGfly5Elp6/zvu77/cfv18Qf+CjP7Pnwj+D9pc/Bm5tdWvZbcRaTpFvGYo7cAYHnqAPJSMY/d9X6JgZI/fs08RMnwGXr+y2pztaEErJevZLt1+9n8o5R4O57m2b1IZynCF71Kjabnr9ju332XXon/Pb8Q/iH40+K/jK/8ffEK9fUNW1F/MnnlPX+6oHRVUYCKBgDHav54x2OxGNxDxOJd5vd/wBdOyP61yjKMHleDp4DA01CnDRJf1q31Z5xXGekFABQB//Q/wA/+gAoAKACgAoAKACgAoAKACgAoA//0f8AP/oAKACgAoAKACgAoAKACgAoAKAP/9k=;" vertex="1" parent="1">
          <mxGeometry x="310.0017582417581" y="410" width="30" height="30" as="geometry" />
        </mxCell>
        <mxCell id="r3z55FjVypWgNgjJTafg-57" value="" style="endArrow=classic;html=1;rounded=0;exitX=1;exitY=0.5;exitDx=0;exitDy=0;entryX=0;entryY=0;entryDx=0;entryDy=0;" edge="1" parent="1" source="r3z55FjVypWgNgjJTafg-14" target="r3z55FjVypWgNgjJTafg-16">
          <mxGeometry width="50" height="50" relative="1" as="geometry">
            <mxPoint x="550" y="380" as="sourcePoint" />
            <mxPoint x="600" y="330" as="targetPoint" />
          </mxGeometry>
        </mxCell>
        <mxCell id="r3z55FjVypWgNgjJTafg-64" value="" style="ellipse;shape=cloud;whiteSpace=wrap;html=1;fillColor=none;" vertex="1" parent="1">
          <mxGeometry x="50" y="120" width="710" height="430" as="geometry" />
        </mxCell>
      </root>
    </mxGraphModel>
  </diagram>
</mxfile>
